<svg width="130" height="130" viewBox="0 0 130 130" fill="none" xmlns="http://www.w3.org/2000/svg">
<g clip-path="url(#clip0_83_156)">
<rect width="130" height="130" fill="url(#paint0_radial_83_156)"/>
<g filter="url(#filter0_d_83_156)">
<path opacity="0.994" fill-rule="evenodd" clip-rule="evenodd" d="M59.5771 30.541C66.1931 30.541 72.8102 30.541 79.4261 30.541C79.4261 37.1969 79.4261 43.8527 79.4261 50.5085C76.4771 47.5966 73.5281 44.6847 70.5791 41.7727C66.9462 38.1573 63.1647 34.1864 59.5771 30.541Z" fill="#E3E4E8"/>
<path opacity="0.987" fill-rule="evenodd" clip-rule="evenodd" d="M59.5778 30.541C63.1653 34.1864 66.72 37.9304 70.3529 41.5458L70.5797 41.7727C70.5797 47.6722 70.5797 53.5717 70.5797 59.4712C66.9128 63.0639 63.0564 66.8078 59.4643 70.4761C59.3883 66.8456 59.5403 63.1017 59.4643 59.4712C59.4269 49.8088 59.4643 40.1654 59.5778 30.541Z" fill="#EEF1F6"/>
<path opacity="0.987" fill-rule="evenodd" clip-rule="evenodd" d="M79.4258 30.541C86.1506 37.1126 92.8425 43.7684 99.5016 50.5085C92.8096 50.5085 86.1177 50.5085 79.4258 50.5085C79.4258 43.8527 79.4258 37.1969 79.4258 30.541Z" fill="#F1F1F4"/>
<path opacity="0.987" fill-rule="evenodd" clip-rule="evenodd" d="M79.4258 50.5078C86.1177 50.5078 92.8096 50.5078 99.5016 50.5078C99.539 57.1829 99.5016 63.8386 99.3882 70.4753C95.753 66.7258 92.0474 63.0575 88.2727 59.4705C85.3238 56.483 82.3748 53.4953 79.4258 50.5078Z" fill="#E3E4E8"/>
<path opacity="0.988" fill-rule="evenodd" clip-rule="evenodd" d="M59.4628 59.4707C59.4628 63.1389 59.4628 66.8073 59.4628 70.4755C63.0549 66.8073 66.9113 63.0634 70.5782 59.4707C76.4762 59.4707 82.3742 59.4707 88.2722 59.4707C92.0469 63.0577 95.7524 66.7259 99.3876 70.4755C89.7841 70.4755 80.1817 70.4755 70.5782 70.4755C70.5782 80.1567 70.5782 89.838 70.5782 99.5192C57.2318 99.5192 43.8865 99.5192 30.54 99.5192C30.54 86.1697 30.54 72.8202 30.54 59.4707C40.181 59.4707 49.8219 59.4707 59.4628 59.4707ZM59.4628 70.4755C59.4628 76.4507 59.4628 82.4258 59.4628 88.4009C53.4888 88.4199 47.516 88.4009 41.542 88.3442C41.6555 82.3961 41.6929 76.4399 41.6555 70.4755C47.5909 70.4755 53.5274 70.4755 59.4628 70.4755Z" fill="white"/>
</g>
</g>
<defs>
<filter id="filter0_d_83_156" x="-26.0176" y="-22.9335" width="179.574" height="179.577" filterUnits="userSpaceOnUse" color-interpolation-filters="sRGB">
<feFlood flood-opacity="0" result="BackgroundImageFix"/>
<feColorMatrix in="SourceAlpha" type="matrix" values="0 0 0 0 0 0 0 0 0 0 0 0 0 0 0 0 0 0 127 0" result="hardAlpha"/>
<feMorphology radius="48" operator="dilate" in="SourceAlpha" result="effect1_dropShadow_83_156"/>
<feOffset dx="-1.25825" dy="1.82484"/>
<feGaussianBlur stdDeviation="3.64968"/>
<feComposite in2="hardAlpha" operator="out"/>
<feColorMatrix type="matrix" values="0 0 0 0 0 0 0 0 0 0 0 0 0 0 0 0 0 0 0.62 0"/>
<feBlend mode="normal" in2="BackgroundImageFix" result="effect1_dropShadow_83_156"/>
<feBlend mode="normal" in="SourceGraphic" in2="effect1_dropShadow_83_156" result="shape"/>
</filter>
<radialGradient id="paint0_radial_83_156" cx="0" cy="0" r="1" gradientUnits="userSpaceOnUse" gradientTransform="translate(82.3867 11.41) rotate(77.467) scale(126.641)">
<stop stop-color="#443B68"/>
<stop offset="1" stop-color="#0F0C17"/>
</radialGradient>
<clipPath id="clip0_83_156">
<rect width="130" height="130" fill="white"/>
</clipPath>
</defs>
</svg>
