<svg width="65" height="66" viewBox="0 0 65 66" fill="none" xmlns="http://www.w3.org/2000/svg">
<g clip-path="url(#clip0_83_175)">
<mask id="mask0_83_175" style="mask-type:alpha" maskUnits="userSpaceOnUse" x="0" y="0" width="65" height="66">
<circle cx="32.5" cy="33" r="32.5" fill="black"/>
</mask>
<g mask="url(#mask0_83_175)">
<g clip-path="url(#clip1_83_175)">
<rect width="65" height="65" transform="translate(0 0.5)" fill="url(#paint0_radial_83_175)"/>
<g filter="url(#filter0_d_83_175)">
<path opacity="0.994" fill-rule="evenodd" clip-rule="evenodd" d="M29.7881 15.7695C33.0961 15.7695 36.4046 15.7695 39.7126 15.7695C39.7126 19.0975 39.7126 22.4254 39.7126 25.7533C38.2381 24.2973 36.7636 22.8414 35.2891 21.3854C33.4726 19.5777 31.5819 17.5922 29.7881 15.7695Z" fill="#E3E4E8"/>
<path opacity="0.987" fill-rule="evenodd" clip-rule="evenodd" d="M29.7894 15.7695C31.5831 17.5922 33.3605 19.4642 35.1769 21.2719L35.2904 21.3854C35.2904 24.3351 35.2904 27.2849 35.2904 30.2346C33.4569 32.031 31.5287 33.9029 29.7326 35.7371C29.6946 33.9218 29.7707 32.0499 29.7327 30.2346C29.7139 25.4034 29.7327 20.5817 29.7894 15.7695Z" fill="#EEF1F6"/>
<path opacity="0.987" fill-rule="evenodd" clip-rule="evenodd" d="M39.7139 15.7695C43.0763 19.0553 46.4222 22.3832 49.7518 25.7533C46.4058 25.7533 43.0598 25.7533 39.7139 25.7533C39.7139 22.4254 39.7139 19.0975 39.7139 15.7695Z" fill="#F1F1F4"/>
<path opacity="0.987" fill-rule="evenodd" clip-rule="evenodd" d="M39.7139 25.7539C43.0598 25.7539 46.4058 25.7539 49.7518 25.7539C49.7705 29.0914 49.7518 32.4193 49.6951 35.7377C47.8775 33.8629 46.0247 32.0288 44.1373 30.2353C42.6629 28.7415 41.1884 27.2477 39.7139 25.7539Z" fill="#E3E4E8"/>
<path opacity="0.988" fill-rule="evenodd" clip-rule="evenodd" d="M29.7319 30.2344C29.7319 32.0685 29.7319 33.9027 29.7319 35.7368C31.5279 33.9027 33.4561 32.0307 35.2896 30.2344C38.2386 30.2344 41.1876 30.2344 44.1366 30.2344C46.0239 32.0279 47.8767 33.862 49.6943 35.7368C44.8925 35.7368 40.0913 35.7368 35.2896 35.7368C35.2896 40.5774 35.2896 45.418 35.2896 50.2586C28.6164 50.2586 21.9437 50.2586 15.2705 50.2586C15.2705 43.5839 15.2705 36.9091 15.2705 30.2344C20.091 30.2344 24.9114 30.2344 29.7319 30.2344ZM29.7319 35.7368C29.7319 38.7244 29.7319 41.7119 29.7319 44.6995C26.7449 44.709 23.7585 44.6995 20.7715 44.6711C20.8282 41.6971 20.8469 38.719 20.8282 35.7368C23.7959 35.7368 26.7642 35.7368 29.7319 35.7368Z" fill="white"/>
</g>
</g>
</g>
</g>
<defs>
<filter id="filter0_d_83_175" x="-37.0083" y="-34.9677" width="137.788" height="137.788" filterUnits="userSpaceOnUse" color-interpolation-filters="sRGB">
<feFlood flood-opacity="0" result="BackgroundImageFix"/>
<feColorMatrix in="SourceAlpha" type="matrix" values="0 0 0 0 0 0 0 0 0 0 0 0 0 0 0 0 0 0 127 0" result="hardAlpha"/>
<feMorphology radius="48" operator="dilate" in="SourceAlpha" result="effect1_dropShadow_83_175"/>
<feOffset dx="-0.629124" dy="0.912419"/>
<feGaussianBlur stdDeviation="1.82484"/>
<feComposite in2="hardAlpha" operator="out"/>
<feColorMatrix type="matrix" values="0 0 0 0 0 0 0 0 0 0 0 0 0 0 0 0 0 0 0.62 0"/>
<feBlend mode="normal" in2="BackgroundImageFix" result="effect1_dropShadow_83_175"/>
<feBlend mode="normal" in="SourceGraphic" in2="effect1_dropShadow_83_175" result="shape"/>
</filter>
<radialGradient id="paint0_radial_83_175" cx="0" cy="0" r="1" gradientUnits="userSpaceOnUse" gradientTransform="translate(41.1934 5.70502) rotate(77.467) scale(63.3203)">
<stop stop-color="#443B68"/>
<stop offset="1" stop-color="#0F0C17"/>
</radialGradient>
<clipPath id="clip0_83_175">
<rect width="65" height="65" fill="white" transform="translate(0 0.5)"/>
</clipPath>
<clipPath id="clip1_83_175">
<rect width="65" height="65" fill="white" transform="translate(0 0.5)"/>
</clipPath>
</defs>
</svg>
