<svg width="261" height="31" viewBox="0 0 261 31" fill="none" xmlns="http://www.w3.org/2000/svg">
<path opacity="0.994" fill-rule="evenodd" clip-rule="evenodd" d="M12.624 0.505859C15.5005 0.505859 18.3776 0.505859 21.2541 0.505859C21.2541 3.39974 21.2541 6.29358 21.2541 9.18746C19.9719 7.92138 18.6897 6.65534 17.4075 5.38926C15.828 3.8173 14.1838 2.09084 12.624 0.505859Z" fill="black"/>
<path opacity="0.987" fill-rule="evenodd" clip-rule="evenodd" d="M12.6233 0.505859C14.1831 2.09084 15.7286 3.71864 17.3082 5.29061L17.4068 5.38926C17.4068 7.95428 17.4068 10.5193 17.4068 13.0843C15.8125 14.6464 14.1358 16.2742 12.574 17.8691C12.5409 16.2906 12.607 14.6628 12.574 13.0843C12.5577 8.88321 12.574 4.69039 12.6233 0.505859Z" fill="black"/>
<path opacity="0.987" fill-rule="evenodd" clip-rule="evenodd" d="M21.2549 0.505859C24.1787 3.36309 27.0883 6.25693 29.9836 9.18746C27.074 9.18746 24.1644 9.18746 21.2549 9.18746C21.2549 6.29358 21.2549 3.39974 21.2549 0.505859Z" fill="black"/>
<path opacity="0.987" fill-rule="evenodd" clip-rule="evenodd" d="M21.2549 9.18555C24.1644 9.18555 27.074 9.18555 29.9836 9.18555C29.9998 12.0878 29.9836 14.9816 29.9342 17.8671C28.3537 16.2369 26.7426 14.642 25.1014 13.0824C23.8192 11.7835 22.5371 10.4845 21.2549 9.18555Z" fill="black"/>
<path opacity="0.988" fill-rule="evenodd" clip-rule="evenodd" d="M12.5752 13.084C12.5752 14.6789 12.5752 16.2738 12.5752 17.8687C14.137 16.2738 15.8137 14.646 17.408 13.084C19.9724 13.084 22.5368 13.084 25.1011 13.084C26.7423 14.6436 28.3534 16.2385 29.934 17.8687C25.7585 17.8687 21.5835 17.8687 17.408 17.8687C17.408 22.078 17.408 26.2873 17.408 30.4965C11.6052 30.4965 5.80285 30.4965 0 30.4965C0 24.6923 0 18.8882 0 13.084C4.19174 13.084 8.38348 13.084 12.5752 13.084ZM12.5752 17.8687C12.5752 20.4666 12.5752 23.0645 12.5752 25.6624C9.97782 25.6707 7.38091 25.6624 4.78351 25.6378C4.83283 23.0516 4.8491 20.462 4.83283 17.8687C7.41346 17.8687 9.99459 17.8687 12.5752 17.8687Z" fill="black"/>
<path opacity="0.983" fill-rule="evenodd" clip-rule="evenodd" d="M93.0444 3.75042C98.0471 3.57418 101.695 5.685 103.99 10.0828C104.962 12.3786 105.255 14.7564 104.867 17.2163C99.426 17.2417 93.9851 17.2672 88.5442 17.2926C88.7377 18.9778 89.6021 20.1734 91.1375 20.8784C92.212 21.3163 93.3306 21.5322 94.4936 21.5269C96.9438 21.5437 99.2574 20.9966 101.435 19.8866C101.727 19.6958 102.019 19.5051 102.312 19.3144C102.375 21.2728 102.362 23.2313 102.274 25.189C100.302 26.3563 98.1659 27.0048 95.8665 27.1345C93.2309 27.4122 90.6884 27.0566 88.2391 26.0664C83.9614 23.8912 81.8511 20.3817 81.9084 15.5378C81.9339 9.96424 84.5526 6.22585 89.7646 4.32262C90.8518 4.03126 91.945 3.84052 93.0444 3.75042ZM93.2732 9.31987C95.1444 9.19246 96.6571 9.85369 97.8115 11.3035C98.1232 11.7935 98.2885 12.3276 98.3073 12.9057C95.0784 12.9057 91.8494 12.9057 88.6205 12.9057C88.7046 11.9363 89.1369 11.1606 89.9171 10.5787C90.9257 9.84851 92.0444 9.42889 93.2732 9.31987Z" fill="black"/>
<path opacity="0.984" fill-rule="evenodd" clip-rule="evenodd" d="M129.96 3.75195C135.116 3.57563 138.815 5.78815 141.058 10.3895C141.911 12.606 142.178 14.8948 141.859 17.2559C136.418 17.2559 130.977 17.2559 125.536 17.2559C125.706 19.1183 126.672 20.3771 128.435 21.0325C131.443 21.7725 134.393 21.5688 137.283 20.4221C137.974 20.1208 138.623 19.7523 139.228 19.3159C139.291 21.2743 139.279 23.2328 139.189 25.1905C137.646 26.1526 135.968 26.7499 134.155 26.9834C132.04 27.2596 129.931 27.2344 127.825 26.9071C122.901 25.8222 119.965 22.8086 119.015 17.8663C118.496 14.7679 118.979 11.8434 120.464 9.09251C122.732 5.73894 125.897 3.9587 129.96 3.75195ZM130.189 9.32139C131.823 9.2345 133.234 9.74315 134.422 10.8473C134.944 11.4337 135.211 12.1204 135.223 12.9072C131.994 12.9326 128.765 12.9072 125.536 12.8309C125.901 11.2835 126.841 10.2536 128.359 9.74101C128.965 9.53609 129.575 9.39624 130.189 9.32139Z" fill="black"/>
<path opacity="0.984" fill-rule="evenodd" clip-rule="evenodd" d="M60.8569 3.82617C60.8984 3.83075 60.9238 3.85616 60.9332 3.90247C58.3028 7.58875 55.6586 11.2636 53.0007 14.9269C55.8939 19.0164 58.8177 23.085 61.7722 27.1339C59.2552 27.185 56.7381 27.185 54.2211 27.1339C52.5049 24.7558 50.7888 22.3785 49.0726 20.0005C47.3564 22.3785 45.6403 24.7558 43.9241 27.1339C41.4321 27.1972 38.9405 27.185 36.4492 27.0958C39.3583 23.0286 42.2821 18.9725 45.2207 14.9269C42.5698 11.2513 39.9002 7.58921 37.212 3.94061C39.7548 3.87706 42.2973 3.88972 44.8394 3.97876C46.2356 5.973 47.6467 7.95664 49.0726 9.92967C50.5091 7.9333 51.9456 5.93699 53.3821 3.94061C55.8866 3.9278 58.3783 3.88965 60.8569 3.82617Z" fill="black"/>
<path opacity="0.982" fill-rule="evenodd" clip-rule="evenodd" d="M72.2981 3.82711C74.3596 3.73502 76.3427 4.07834 78.2474 4.85707C78.8066 5.13654 79.3405 5.45445 79.8492 5.81075C79.9509 7.94697 79.9509 10.0832 79.8492 12.2194C77.7909 10.3751 75.3755 9.59942 72.6031 9.89246C69.3629 10.3741 67.6086 12.2433 67.3402 15.5001C67.5162 18.4608 69.0417 20.3043 71.9167 21.0314C74.9275 21.5601 77.5844 20.8353 79.8873 18.857C79.9382 20.968 79.9382 23.0783 79.8873 25.1894C78.2879 26.3498 76.4954 26.9983 74.51 27.1349C70.0592 27.627 66.3344 26.2407 63.3358 22.9768C61.3281 20.4599 60.4891 17.5862 60.8188 14.3556C61.3193 10.1433 63.4423 7.05342 67.1877 5.08595C68.8206 4.34064 70.524 3.92102 72.2981 3.82711Z" fill="black"/>
<path opacity="0.988" fill-rule="evenodd" clip-rule="evenodd" d="M107.079 3.82617C109.215 3.82617 111.35 3.82617 113.486 3.82617C113.486 9.67539 113.486 15.5245 113.486 21.3737C115.089 21.3486 116.69 21.3737 118.291 21.45C119.115 23.6595 120.45 25.4906 122.296 26.9432C122.332 27.0157 122.345 27.092 122.334 27.1721C117.249 27.1721 112.164 27.1721 107.079 27.1721C107.079 19.3901 107.079 11.6081 107.079 3.82617Z" fill="black"/>
<path opacity="0.983" fill-rule="evenodd" clip-rule="evenodd" d="M143.841 3.82704C147.603 3.8143 151.367 3.82704 155.129 3.86519C158.497 4.19432 160.9 5.88553 162.337 8.93873C163.315 11.7229 162.959 14.3169 161.269 16.7207C160.901 17.0894 160.532 17.4582 160.163 17.827C159.757 18.0812 159.35 18.3356 158.943 18.5899C160.875 21.4379 162.808 24.2867 164.74 27.1348C162.274 27.1859 159.807 27.1859 157.341 27.1348C155.778 24.7567 154.214 22.3794 152.65 20.0013C151.882 19.9258 151.106 19.9006 150.324 19.925C150.324 22.3413 150.324 24.7567 150.324 27.1729C148.163 27.1729 146.002 27.1729 143.841 27.1729C143.841 19.391 143.841 11.609 143.841 3.82704ZM150.324 9.70167C151.905 9.66619 153.482 9.70434 155.053 9.81611C156.016 10.2851 156.499 11.0608 156.502 12.1431C156.446 13.6869 155.658 14.5643 154.138 14.7752C152.867 14.8133 151.596 14.8261 150.324 14.8133C150.324 13.1095 150.324 11.4055 150.324 9.70167Z" fill="black"/>
<path opacity="0.984" fill-rule="evenodd" clip-rule="evenodd" d="M174.657 3.82948C177.708 3.6711 180.186 4.76461 182.094 7.11011C182.132 6.16949 182.145 5.22856 182.132 4.28724C184.369 4.28724 186.607 4.28724 188.844 4.28724C188.844 11.8403 188.844 19.3934 188.844 26.9465C186.607 26.9465 184.369 26.9465 182.132 26.9465C182.145 26.0562 182.132 25.1658 182.094 24.2762C180.834 25.8669 179.194 26.8206 177.174 27.1372C173.242 27.5134 169.898 26.3056 167.144 23.5133C164.854 20.6576 163.964 17.4023 164.475 13.7477C165.531 8.02381 168.925 4.71777 174.657 3.82948ZM176.335 9.93298C178.779 9.88934 180.622 10.9066 181.865 12.9847C183.061 15.9972 182.337 18.4259 179.691 20.2708C177.001 21.5624 174.599 21.168 172.484 19.0882C170.764 16.7871 170.712 14.4475 172.331 12.0692C173.399 10.8424 174.734 10.1304 176.335 9.93298Z" fill="black"/>
<path opacity="0.985" fill-rule="evenodd" clip-rule="evenodd" d="M224.999 3.82214C229.956 3.58669 233.833 5.49404 236.63 9.54417C238.818 13.3426 238.894 17.1827 236.859 21.0645C234.678 24.5924 231.513 26.6141 227.363 27.1299C222.24 27.4732 218.261 25.5277 215.426 21.2934C213.371 17.4916 213.345 13.6769 215.35 9.84935C217.595 6.30321 220.811 4.29417 224.999 3.82214ZM225.456 9.84935C228.343 9.74704 230.339 11.0186 231.444 13.664C232.257 16.9503 231.151 19.3281 228.126 20.7975C225.311 21.6474 223.036 20.8974 221.299 18.5468C219.875 15.8167 220.244 13.3626 222.405 11.1845C223.309 10.465 224.326 10.02 225.456 9.84935Z" fill="black"/>
<path opacity="0.986" fill-rule="evenodd" clip-rule="evenodd" d="M240.178 3.82704C244.043 3.8143 247.907 3.82704 251.771 3.86519C255.103 4.31639 257.429 6.08381 258.75 9.16761C259.774 12.4417 259.075 15.2773 256.653 17.6744C256.195 17.9795 255.738 18.2847 255.28 18.5899C257.196 21.4189 259.103 24.2547 261.001 27.0966C258.535 27.1981 256.068 27.1981 253.602 27.0966C252.064 24.7315 250.526 22.3664 248.987 20.0013C248.193 19.9258 247.392 19.9006 246.585 19.925C246.585 22.3413 246.585 24.7567 246.585 27.1729C244.449 27.1729 242.313 27.1729 240.178 27.1729C240.178 19.391 240.178 11.609 240.178 3.82704ZM246.585 9.70167C248.11 9.68892 249.636 9.70167 251.161 9.73981C251.999 10.0186 252.52 10.5908 252.725 11.4564C252.895 12.3761 252.717 13.2154 252.191 13.9741C251.829 14.3648 251.385 14.6064 250.856 14.6989C249.44 14.7121 248.029 14.7503 246.623 14.8133C246.585 13.1096 246.572 11.4058 246.585 9.70167Z" fill="black"/>
<path opacity="0.98" fill-rule="evenodd" clip-rule="evenodd" d="M190.598 3.9043C197.844 3.9043 205.09 3.9043 212.336 3.9043C212.336 6.21852 212.336 8.53281 212.336 10.847C209.87 10.847 207.403 10.847 204.937 10.847C204.937 16.2893 204.937 21.7319 204.937 27.1739C202.624 27.1739 200.31 27.1739 197.996 27.1739C197.996 21.7319 197.996 16.2893 197.996 10.847C195.53 10.847 193.064 10.847 190.598 10.847C190.598 8.53281 190.598 6.21852 190.598 3.9043Z" fill="black"/>
</svg>
