<svg width="80" height="79" viewBox="0 0 80 79" fill="none" xmlns="http://www.w3.org/2000/svg" xmlns:xlink="http://www.w3.org/1999/xlink">
<symbol id="logo-symbol-icon">
<path opacity="0.994" fill-rule="evenodd" clip-rule="evenodd" d="M33.7539 0C41.331 0 48.9095 0 56.4866 0C56.4866 7.62287 56.4866 15.2456 56.4866 22.8685C53.1092 19.5335 49.7317 16.1986 46.3543 12.8635C42.1936 8.72277 37.8627 4.17506 33.7539 0Z" fill="currentColor"/>
<path opacity="0.987" fill-rule="evenodd" clip-rule="evenodd" d="M33.7566 0C37.8654 4.17506 41.9365 8.4629 46.0972 12.6037L46.357 12.8635C46.357 19.6201 46.357 26.3767 46.357 33.1333C42.1573 37.248 37.7406 41.5358 33.6267 45.737C33.5396 41.5791 33.7137 37.2912 33.6267 33.1333C33.5838 22.067 33.6267 11.0226 33.7566 0Z" fill="currentColor"/>
<path opacity="0.987" fill-rule="evenodd" clip-rule="evenodd" d="M56.4893 0C64.1911 7.52633 71.8553 15.1491 79.4818 22.8685C71.8176 22.8685 64.1534 22.8685 56.4893 22.8685C56.4893 15.2456 56.4893 7.62287 56.4893 0Z" fill="currentColor"/>
<path opacity="0.987" fill-rule="evenodd" clip-rule="evenodd" d="M56.4893 22.873C64.1534 22.873 71.8176 22.873 79.4818 22.873C79.5246 30.5179 79.4818 38.1406 79.3519 45.7415C75.1885 41.4472 70.9447 37.246 66.6215 33.1379C63.2441 29.7163 59.8667 26.2946 56.4893 22.873Z" fill="currentColor"/>
<path opacity="0.988" fill-rule="evenodd" clip-rule="evenodd" d="M33.6248 33.1328C33.6248 37.334 33.6248 41.5353 33.6248 45.7365C37.7387 41.5353 42.1554 37.2475 46.3551 33.1328C53.1099 33.1328 59.8648 33.1328 66.6197 33.1328C70.9428 37.241 75.1866 41.4421 79.35 45.7365C68.3512 45.7365 57.3538 45.7365 46.3551 45.7365C46.3551 56.8242 46.3551 67.912 46.3551 78.9997C31.0696 78.9997 15.7855 78.9997 0.5 78.9997C0.5 63.7107 0.5 48.4218 0.5 33.1328C11.5416 33.1328 22.5832 33.1328 33.6248 33.1328ZM33.6248 45.7365C33.6248 52.5797 33.6248 59.4229 33.6248 66.2661C26.7829 66.2878 19.9423 66.2661 13.1004 66.2012C13.2303 59.389 13.2732 52.5674 13.2303 45.7365C20.028 45.7365 26.8271 45.7365 33.6248 45.7365Z" fill="currentColor"/>
</symbol>
<use xlink:href="#logo-symbol-icon"/>
</svg>